<svg width="180" height="180" viewBox="0 0 180 180" fill="none" xmlns="http://www.w3.org/2000/svg">
<g id="Form">
<path id="Polygon 1" d="M12.5577 45.2887L90 0.57735L167.442 45.2887V134.711L90 179.423L12.5577 134.711V45.2887Z" stroke="white"/>
<path id="Polygon 2" d="M32.5433 56.0387L90.5 22.5774L148.457 56.0387V122.961L90.5 156.423L32.5433 122.961V56.0387Z" stroke="white"/>
<path id="Polygon 3" d="M51.5289 67.7887L90 45.5774L128.471 67.7887V112.211L90 134.423L51.5289 112.211V67.7887Z" stroke="white"/>
<path id="Polygon 4" d="M71.5144 78.5387L90.5 67.5774L109.486 78.5387V100.461L90.5 111.423L71.5144 100.461V78.5387Z" stroke="white"/>
<path id="Polygon 5" d="M81.0072 84.9137L90.25 79.5774L99.4927 84.9137V95.5863L90.25 100.923L81.0072 95.5863V84.9137Z" stroke="white"/>
</g>
</svg>
